# xmcd
# 
# Track frame offsets:
#     150
#     10601
#     42532
#     74661
#     80761
#     103688
#     115921
#     139951
#     148878
# 
# Disc length: 2577
# 
# Revision: 0
# Processed by: cddbd v1.5.2PL0 Copyright (c) Steve Scherf et al.
# Submitted via: fre:ac v1.0.17
# 
DISCID=880a0f09
DTITLE=劇団四季 - オペラ座の怪人 オリジナルキャスト盤 Disc.2
DYEAR=0
DGENRE=Classical
TTITLE0=アントラクト
TTITLE1=マスカレード
TTITLE2=支配人のオフィス
TTITLE3=「ドンファンの勝利」の稽古
TTITLE4=墓場にて
TTITLE5=「ドンファンの勝利」
TTITLE6=ザ・ポイント・オブ・ノー・リターン
TTITLE7=ダウン・ワンス・モア
TTITLE8=怪人の隠れ家
EXTD=
EXTT0=
EXTT1=
EXTT2=
EXTT3=
EXTT4=
EXTT5=
EXTT6=
EXTT7=
EXTT8=
PLAYORDER=
